<svg width="420" height="120" viewBox="0 0 420 120" fill="none" xmlns="http://www.w3.org/2000/svg" role="img" aria-labelledby="logoTitle logoDesc">
  <title id="logoTitle">Lion Ai</title>
  <desc id="logoDesc">Lion Ai wordmark with a robot icon on a gold plate.</desc>
  <rect x="2" y="2" width="416" height="116" rx="22" fill="#D9A90A"/>
  <rect x="2" y="2" width="416" height="116" rx="22" stroke="#0B0B0D" stroke-opacity="0.25" stroke-width="3"/>
  <text x="24" y="82" fill="#050507" font-family="Georgia, 'Times New Roman', serif" font-size="76" font-weight="700" letter-spacing="0.5">Lion Ai</text>
  <g transform="translate(340 24)" stroke="#0C0C10" stroke-width="3" stroke-linecap="round" stroke-linejoin="round">
    <rect x="8" y="18" width="56" height="50" rx="10" fill="none"/>
    <rect x="16" y="0" width="40" height="32" rx="8" fill="none"/>
    <circle cx="30" cy="16" r="3" fill="#0C0C10"/>
    <circle cx="42" cy="16" r="3" fill="#0C0C10"/>
    <path d="M26 24H46"/>
    <path d="M0 46H8M64 46H72"/>
    <path d="M22 68V92M50 68V92"/>
    <rect x="16" y="92" width="12" height="10" rx="3" fill="none"/>
    <rect x="44" y="92" width="12" height="10" rx="3" fill="none"/>
    <path d="M22 0V-6M50 0V-6"/>
    <circle cx="22" cy="-8" r="2" fill="#0C0C10"/>
    <circle cx="50" cy="-8" r="2" fill="#0C0C10"/>
    <path d="M72 46l8-6"/>
    <circle cx="82" cy="39" r="2" fill="#0C0C10"/>
  </g>
</svg>
